<svg width="901" height="251" viewBox="0 0 901 251" fill="none" xmlns="http://www.w3.org/2000/svg">
<path d="M325.743 101.794L346.655 84.755L325.743 73.8011L293.933 47.0801L265.054 79.7581C268.721 83.6346 272.624 87.7863 276.152 91.5822L293.933 73.8011L321.926 101.794C311.747 104.339 290.624 108.411 287.57 104.339C286.216 102.533 281.639 97.4883 276.152 91.5822L265.939 101.794H245.58L265.054 79.7581L293.933 47.0801L325.743 73.8011L346.655 84.755L379.185 101.794H325.743Z" fill="white"/>
<path d="M517.88 101.794H393.182L360.099 73.8011L325.743 101.794H379.185L325.743 73.8011L293.933 47.0801L245.58 101.794H265.939L293.933 73.8011L321.926 101.794C311.747 104.339 290.624 108.411 287.57 104.339C284.517 100.268 265.091 79.7391 255.76 69.9838L220.132 101.794H71.2578" stroke="white" stroke-width="2.54486"/>
<path d="M526.022 115.791V81.9443H664.207V182.212H619.927C619.927 182.212 619.672 166.179 619.163 154.218C599.568 175.086 568.012 185.52 525.004 185.52H130.551C110.192 185.52 92.1238 183.484 76.3457 179.412C60.5676 175.341 47.8433 170.251 38.4273 164.143C29.0113 157.781 21.3768 150.655 15.5236 142.512C9.41596 134.114 5.3442 126.225 3.05383 118.59C1.01794 110.956 0 103.321 0 95.4321V88.561C0 80.6719 0.763457 73.0373 2.54486 65.9118C4.58074 58.5317 8.39802 50.6426 14.2512 42.4991C20.1044 34.1011 27.7389 26.9755 37.1549 21.1223C46.3164 15.0146 59.2951 9.92494 75.5822 6.10765C90.3424 2.54485 106.884 0.50898 125.461 0C128.006 0 130.297 0 132.841 0H532.893C553.761 0 572.083 1.52691 588.116 4.83522C604.149 8.14354 616.618 11.9608 625.78 16.796C634.687 21.3768 642.321 26.9755 647.92 33.5921C653.773 39.9542 657.591 46.0619 659.626 51.4061C661.662 56.7503 662.68 62.349 662.68 67.9476V68.2021H597.278C590.915 51.1516 567.503 42.4991 527.548 42.4991C523.986 42.4991 132.078 42.7536 128.77 42.7536C85.7616 45.0439 64.1304 61.0765 64.1304 91.1058V93.6507C64.1304 106.884 70.238 118.081 82.4533 127.497C93.3962 136.15 109.429 140.73 130.297 141.748C132.841 141.748 524.24 141.748 527.04 141.748C537.982 141.748 547.907 140.985 557.069 139.713C566.23 138.186 573.356 136.404 578.955 134.368C584.299 132.332 588.88 130.042 592.697 127.497C596.514 124.952 599.313 122.662 600.586 120.881C602.113 118.845 602.876 117.318 602.876 116.3V115.791H526.022Z" fill="white"/>
<path d="M843.995 57.2592H901V167.706C901 173.305 900.237 179.158 899.219 184.756C897.946 190.61 895.401 196.972 891.075 204.097C887.003 211.223 881.659 217.331 875.042 222.675C868.426 228.019 859.264 232.345 847.049 235.908C835.088 239.471 821.092 241.252 805.059 241.252H419.768V204.606H802.514C830.508 202.825 844.504 190.101 844.504 165.925C828.981 179.667 806.84 186.283 778.083 186.283H775.03C745 186.283 722.606 180.43 707.845 168.215C693.34 156.254 685.96 140.73 685.96 121.644V116.809C685.96 98.7404 692.576 83.7257 705.81 71.7649C719.043 59.8041 739.656 53.9509 767.904 53.9509H773.248C805.059 53.9509 828.726 61.0765 843.995 75.3277V57.2592ZM843.232 120.881V119.608C843.232 110.956 838.651 103.83 829.999 97.9769C821.092 92.1238 808.367 89.0699 791.571 89.0699H790.044C773.503 89.0699 761.542 91.8693 754.162 97.7224C747.036 103.321 743.473 110.447 743.473 119.354V120.372C743.473 129.279 747.291 136.659 754.925 142.766C762.305 148.874 774.012 151.928 790.044 151.928H791.571C808.367 151.928 821.092 148.874 829.999 142.766C838.651 136.659 843.232 129.279 843.232 120.881Z" fill="white"/>
<path d="M402.083 231.81C403.699 232.264 405.769 232.517 408.294 232.517L405.82 239.031C402.083 239.031 398.75 238.223 395.872 236.657C392.338 238.273 388.096 239.081 383.148 239.081C370.776 239.081 364.616 236.102 364.616 230.093V229.639C364.616 225.801 367.696 223.377 373.856 222.468C371.18 220.499 369.867 218.227 369.867 215.752V215.45C369.867 214.642 369.968 213.985 370.12 213.379C370.322 212.723 370.675 212.117 371.18 211.41C371.736 210.753 372.443 210.148 373.351 209.693C374.26 209.239 375.472 208.885 377.038 208.582C378.603 208.279 380.421 208.178 382.542 208.178H384.662C392.944 208.178 397.034 210.501 397.034 215.248V215.45C397.034 215.702 397.034 215.904 396.983 216.156H388.853V216.106C388.853 215.147 388.45 214.44 387.692 213.935C386.884 213.43 385.47 213.177 383.45 213.177C381.734 213.177 380.522 213.379 379.815 213.783C379.158 214.187 378.855 214.743 378.855 215.5C378.855 216.156 379.158 216.813 379.815 217.469C380.471 218.075 395.418 228.275 395.418 228.275C396.781 226.154 397.438 223.579 397.438 220.499H406.274C406.072 224.892 404.709 228.679 402.083 231.81ZM382.845 233.325C385.42 233.325 387.642 233.072 389.459 232.567L377.391 224.791C375.22 225.549 374.159 226.861 374.159 228.578V228.679C374.159 229.992 374.866 231.052 376.28 231.961C377.694 232.87 379.916 233.325 382.845 233.325Z" fill="white"/>
</svg>
